<svg width="1904" height="564" viewBox="0 0 1904 564" fill="none" xmlns="http://www.w3.org/2000/svg">
<path d="M601.184 195.672V146.136H652.64V195.672H601.184ZM602.72 423V223.32H651.488V423H602.72ZM786.323 422.616C781.459 423.64 777.875 424.28 775.571 424.536C773.523 425.048 770.067 425.304 765.203 425.304C748.819 425.304 735.635 421.08 725.651 412.632C715.667 404.184 710.675 390.488 710.675 371.544V145.368H759.059V363.48C759.059 369.368 760.211 374.104 762.515 377.688C764.819 381.016 770.067 382.68 778.259 382.68C780.307 382.68 781.843 382.68 782.867 382.68C783.891 382.424 785.043 382.296 786.323 382.296V422.616ZM902.198 422.616C897.334 423.64 893.75 424.28 891.446 424.536C889.398 425.048 885.942 425.304 881.078 425.304C864.694 425.304 851.51 421.08 841.526 412.632C831.542 404.184 826.55 390.488 826.55 371.544V145.368H874.934V363.48C874.934 369.368 876.086 374.104 878.39 377.688C880.694 381.016 885.942 382.68 894.134 382.68C896.182 382.68 897.718 382.68 898.742 382.68C899.766 382.424 900.918 382.296 902.198 382.296V422.616ZM1070.3 423L1066.84 396.888C1061.98 406.616 1054.43 414.296 1044.19 419.928C1033.95 425.304 1022.43 427.992 1009.62 427.992C998.873 427.992 989.273 426.328 980.825 423C972.377 419.416 965.081 414.552 958.937 408.408C953.049 402.008 948.441 394.456 945.113 385.752C942.041 377.048 940.505 367.32 940.505 356.568V223.32H988.505V345.816C988.505 357.592 991.065 366.936 996.185 373.848C1001.31 380.504 1010.27 383.832 1023.07 383.832C1028.7 383.832 1033.43 382.936 1037.27 381.144C1041.37 379.096 1044.83 376.664 1047.64 373.848C1053.53 368.472 1057.37 361.688 1059.16 353.496C1061.21 345.304 1062.23 337.112 1062.23 328.92V223.32H1110.23V423H1070.3ZM1325.21 361.176C1325.21 370.904 1323.55 379.352 1320.22 386.52C1317.15 393.688 1313.05 399.832 1307.93 404.952C1299.74 413.144 1289.76 419.032 1277.98 422.616C1266.21 426.2 1253.41 427.992 1239.58 427.992C1226.78 427.992 1214.88 426.2 1203.87 422.616C1192.86 418.776 1183.26 412.888 1175.07 404.952C1169.18 399.32 1164.19 392.536 1160.09 384.6C1156 376.664 1153.95 367.96 1153.95 358.488H1198.88C1198.88 362.84 1199.9 367.192 1201.95 371.544C1204 375.896 1206.56 379.352 1209.63 381.912C1213.47 384.984 1217.69 387.288 1222.3 388.824C1227.17 390.104 1233.05 390.744 1239.97 390.744C1244.06 390.744 1248.41 390.488 1253.02 389.976C1257.89 389.208 1262.37 387.928 1266.46 386.136C1270.56 384.344 1273.89 381.784 1276.45 378.456C1279.26 375.128 1280.67 370.776 1280.67 365.4C1280.67 359.512 1278.88 354.776 1275.29 351.192C1271.71 347.608 1266.85 345.304 1260.7 344.28C1251.74 343 1242.53 341.976 1233.05 341.208C1223.58 340.184 1214.37 338.648 1205.41 336.6C1198.49 335.064 1192.22 332.632 1186.59 329.304C1181.21 325.976 1176.48 322.008 1172.38 317.4C1168.29 312.536 1165.09 307.288 1162.78 301.656C1160.73 295.768 1159.71 289.624 1159.71 283.224C1159.71 272.984 1161.63 264.28 1165.47 257.112C1169.31 249.688 1174.17 243.416 1180.06 238.296C1187.49 231.896 1196.32 227.032 1206.56 223.704C1216.8 220.12 1228.19 218.328 1240.73 218.328C1252.77 218.328 1264.29 220.248 1275.29 224.088C1286.56 227.928 1295.9 233.816 1303.33 241.752C1308.7 247.64 1312.93 254.168 1316 261.336C1319.33 268.248 1320.99 275.416 1320.99 282.84H1275.29C1275.29 279 1274.53 275.544 1272.99 272.472C1271.45 269.4 1269.53 266.584 1267.23 264.024C1264.41 261.208 1260.57 259.032 1255.71 257.496C1251.1 255.704 1246.24 254.808 1241.12 254.808C1237.53 254.808 1234.08 254.936 1230.75 255.192C1227.42 255.448 1223.97 256.344 1220.38 257.88C1216.03 259.672 1212.32 262.36 1209.25 265.944C1206.43 269.528 1205.02 273.88 1205.02 279C1205.02 286.168 1207.45 291.16 1212.32 293.976C1217.44 296.536 1222.69 298.2 1228.06 298.968C1232.67 299.48 1236.51 299.992 1239.58 300.504C1242.65 300.76 1245.73 301.144 1248.8 301.656C1251.87 301.912 1255.07 302.296 1258.4 302.808C1261.73 303.32 1265.82 303.96 1270.69 304.728C1286.56 307.288 1299.61 313.432 1309.85 323.16C1320.09 332.632 1325.21 345.304 1325.21 361.176ZM1369.56 195.672V146.136H1421.02V195.672H1369.56ZM1371.1 423V223.32H1419.86V423H1371.1ZM1653 323.16C1653 340.056 1650.95 354.264 1646.86 365.784C1642.76 377.048 1637 387.416 1629.58 396.888C1622.67 405.336 1613.07 412.632 1600.78 418.776C1588.75 424.92 1575.05 427.992 1559.69 427.992C1544.33 427.992 1530.51 424.92 1518.22 418.776C1506.19 412.632 1496.71 405.336 1489.8 396.888C1482.38 387.416 1476.62 377.048 1472.52 365.784C1468.43 354.264 1466.38 340.056 1466.38 323.16C1466.38 306.264 1468.43 292.184 1472.52 280.92C1476.62 269.4 1482.38 258.904 1489.8 249.432C1496.71 240.984 1506.19 233.688 1518.22 227.544C1530.51 221.4 1544.33 218.328 1559.69 218.328C1575.05 218.328 1588.75 221.4 1600.78 227.544C1613.07 233.688 1622.67 240.984 1629.58 249.432C1637 258.904 1642.76 269.4 1646.86 280.92C1650.95 292.184 1653 306.264 1653 323.16ZM1604.23 323.16C1604.23 313.688 1603.34 304.6 1601.55 295.896C1599.75 286.936 1595.91 279.256 1590.03 272.856C1586.7 269.272 1582.47 266.328 1577.35 264.024C1572.23 261.464 1566.35 260.184 1559.69 260.184C1553.03 260.184 1547.15 261.464 1542.03 264.024C1536.91 266.328 1532.68 269.272 1529.35 272.856C1523.47 279.256 1519.63 286.936 1517.83 295.896C1516.04 304.6 1515.15 313.688 1515.15 323.16C1515.15 332.632 1516.04 341.848 1517.83 350.808C1519.63 359.512 1523.47 367.064 1529.35 373.464C1532.68 377.048 1536.91 380.12 1542.03 382.68C1547.15 384.984 1553.03 386.136 1559.69 386.136C1566.35 386.136 1572.23 384.984 1577.35 382.68C1582.47 380.12 1586.7 377.048 1590.03 373.464C1595.91 367.064 1599.75 359.512 1601.55 350.808C1603.34 341.848 1604.23 332.632 1604.23 323.16ZM1821.31 423V300.504C1821.31 288.728 1819.01 279.512 1814.4 272.856C1809.79 266.2 1801.09 262.872 1788.29 262.872C1779.84 262.872 1772.8 265.304 1767.17 270.168C1761.54 274.776 1757.06 280.792 1753.73 288.216C1750.4 295.64 1748.48 304.344 1747.97 314.328C1747.46 324.056 1747.2 333.144 1747.2 341.592V423H1699.2V223.32H1739.52L1742.98 249.048C1748.87 238.552 1757.19 230.872 1767.94 226.008C1778.95 220.888 1790.21 218.328 1801.73 218.328C1812.48 218.328 1821.95 220.12 1830.15 223.704C1838.59 227.288 1845.63 232.28 1851.27 238.68C1857.15 244.824 1861.63 252.376 1864.71 261.336C1867.78 270.04 1869.31 279.512 1869.31 289.752V423H1821.31Z" fill="white"/>
<path d="M379.193 370.761C380.818 370.074 381.606 370.195 383.287 370.682C384.526 371.266 384.527 371.266 385.789 372.013C386.265 372.291 386.742 372.57 387.232 372.857C387.994 373.312 387.995 373.311 388.772 373.774C389.584 374.251 390.395 374.727 391.207 375.203C392.05 375.698 392.892 376.195 393.734 376.691C395.899 377.966 398.079 379.216 400.258 380.467C404.145 382.698 408.022 384.942 411.854 387.267C415.156 389.261 418.51 391.167 421.855 393.089C425.62 395.256 429.362 397.461 433.094 399.685C437.435 402.27 441.808 404.789 446.215 407.26C449.455 409.082 452.648 410.971 455.829 412.894C463.316 417.416 470.908 421.763 478.487 426.127C481.774 428.02 485.055 429.925 488.329 431.84C487.158 433.155 485.855 433.921 484.326 434.781C483.799 435.08 483.27 435.379 482.727 435.687C482.446 435.844 482.166 436.002 481.877 436.164C480.388 437 478.903 437.845 477.418 438.688C477.116 438.858 476.815 439.029 476.504 439.205C473.702 440.793 470.917 442.41 468.138 444.036C467.684 444.302 467.229 444.567 466.761 444.841C465.848 445.375 464.935 445.909 464.022 446.443C461.232 448.076 458.438 449.704 455.645 451.333C453.333 452.681 451.021 454.031 448.712 455.383C443.503 458.43 438.276 461.445 433.032 464.432C427.296 467.7 421.603 471.041 415.911 474.387C411.224 477.14 406.512 479.851 401.802 482.564C400.746 483.173 399.69 483.781 398.635 484.39C398.112 484.691 397.589 484.992 397.051 485.303C394.196 486.95 391.347 488.607 388.51 490.284C385.734 491.926 382.939 493.533 380.136 495.127C376.158 497.39 372.205 499.695 368.26 502.014C359.699 507.043 351.105 512.01 342.453 516.882C338.799 518.944 335.172 521.052 331.552 523.172C328.138 525.171 324.712 527.149 321.282 529.12C317.061 531.548 312.863 534.012 308.678 536.502C304.566 538.948 300.437 541.357 296.276 543.718C293.427 545.338 290.603 546.995 287.786 548.67C283.505 551.215 279.187 553.692 274.858 556.154C271.291 558.184 267.736 560.231 264.237 562.378C262.416 563.492 262.415 563.492 261.904 563.492C261.808 547.779 261.735 532.067 261.69 516.354C261.685 514.499 261.679 512.644 261.674 510.789C261.673 510.42 261.672 510.05 261.671 509.67C261.653 503.69 261.62 497.71 261.581 491.729C261.542 485.594 261.518 479.459 261.51 473.323C261.504 469.537 261.485 465.75 261.451 461.964C261.426 459.061 261.424 456.159 261.43 453.257C261.429 452.066 261.42 450.874 261.404 449.683C261.383 448.058 261.388 446.435 261.399 444.81C261.387 444.336 261.375 443.863 261.362 443.376C261.422 440.25 261.422 440.25 262.823 438.874C263.891 438.152 264.954 437.549 266.106 436.975C266.818 436.553 266.818 436.554 267.544 436.124C267.966 435.892 268.388 435.658 268.823 435.419C269.3 435.155 269.777 434.891 270.269 434.619C270.763 434.347 271.257 434.075 271.767 433.795C275.186 431.897 278.592 429.991 281.932 427.957C285.115 426.022 288.334 424.149 291.55 422.269C296.744 419.231 296.745 419.231 301.908 416.142C305.422 414.021 308.981 411.983 312.538 409.937C316.552 407.625 320.555 405.296 324.551 402.953C324.842 402.782 325.133 402.611 325.433 402.436C328.494 400.64 331.552 398.839 334.588 397.001C340.227 393.599 345.962 390.355 351.673 387.075C358.481 383.164 365.258 379.204 372.006 375.189C372.481 374.91 372.956 374.63 373.445 374.342C374.438 373.749 375.422 373.141 376.397 372.521C376.886 372.218 377.375 371.914 377.878 371.601C378.312 371.324 378.746 371.046 379.193 370.761ZM114.864 371.643C116.904 370.419 118.094 369.819 120.448 370.682C122.033 371.492 123.543 372.404 125.059 373.336C125.985 373.895 126.913 374.454 127.84 375.013C128.317 375.301 128.794 375.59 129.285 375.888C131.549 377.249 133.833 378.575 136.117 379.901C139.142 381.662 142.166 383.427 145.183 385.201C150.837 388.526 156.501 391.829 162.202 395.074C166.867 397.73 171.503 400.429 176.118 403.17C179.262 405.037 182.419 406.882 185.574 408.729C189.149 410.822 192.722 412.919 196.283 415.034C200.899 417.775 205.55 420.453 210.216 423.108C213.244 424.832 216.269 426.558 219.246 428.367C222.972 430.631 226.757 432.793 230.54 434.96C231.039 435.247 231.539 435.534 232.054 435.829C232.72 436.211 232.72 436.21 233.4 436.6C233.871 436.877 234.342 437.155 234.827 437.441C235.138 437.579 235.448 437.717 235.768 437.859C236.863 438.404 237.687 438.917 238.562 439.775C239.115 441.428 239.05 443.024 239.011 444.753C239.014 445.26 239.017 445.767 239.021 446.29C239.027 447.993 239.007 449.695 238.986 451.397C238.985 452.617 238.985 453.836 238.987 455.055C238.989 457.681 238.978 460.307 238.957 462.934C238.927 466.731 238.917 470.529 238.912 474.326C238.904 480.487 238.879 486.648 238.844 492.809C238.809 498.793 238.783 504.778 238.768 510.763C238.767 511.132 238.766 511.501 238.765 511.881C238.76 513.731 238.755 515.582 238.75 517.433C238.711 532.785 238.646 548.139 238.562 563.491C236.956 562.863 235.494 562.179 234.009 561.3C233.578 561.047 233.148 560.793 232.704 560.532C232.24 560.257 231.775 559.982 231.297 559.698C227.317 557.358 223.325 555.041 219.312 552.757C211.997 548.592 204.725 544.353 197.466 540.091C196.323 539.42 195.18 538.748 194.036 538.077C193.751 537.91 193.466 537.743 193.172 537.57C187.653 534.333 182.114 531.13 176.568 527.939C169.683 523.978 162.805 520.006 155.947 515.998C152.524 513.999 149.093 512.016 145.658 510.037C141.298 507.526 136.948 504.999 132.604 502.46C129.182 500.461 125.75 498.477 122.315 496.498C116.083 492.907 109.87 489.283 103.66 485.653C97.8612 482.265 92.0535 478.892 86.2334 475.539C82.8484 473.588 79.4698 471.626 76.0967 469.654C70.7059 466.504 65.2988 463.383 59.8887 460.267C56.849 458.515 53.8109 456.761 50.7725 455.008C48.2325 453.542 45.6924 452.077 43.1514 450.613C37.2998 447.242 31.4521 443.864 25.626 440.448C23.7211 439.332 21.8091 438.229 19.8926 437.133C18.9418 436.584 17.9907 436.035 17.04 435.486C16.5934 435.234 16.1467 434.981 15.6865 434.721C15.2811 434.485 14.8757 434.249 14.458 434.007C14.0991 433.802 13.7399 433.596 13.3701 433.385C13.1178 433.183 12.8655 432.981 12.6055 432.772V431.372C13.838 430.661 15.0702 429.949 16.3027 429.238C17.3944 428.608 18.4865 427.979 19.5781 427.349C22.3098 425.772 25.0426 424.197 27.7764 422.624C37.1016 417.257 46.3873 411.822 55.6436 406.337C59.2847 404.179 62.9449 402.057 66.6143 399.947C70.8245 397.527 75.0154 395.075 79.1904 392.594C87.5512 387.625 95.9495 382.722 104.387 377.885C106.745 376.531 109.094 375.165 111.416 373.75C112.022 373.385 112.023 373.384 112.642 373.012C113.386 372.562 114.128 372.106 114.864 371.643ZM129.785 225.957C132.189 226.905 134.405 228.074 136.671 229.313C137.121 229.558 137.573 229.804 138.037 230.058C141.944 232.21 145.768 234.488 149.583 236.799C153.036 238.888 156.513 240.929 160.014 242.938C164.364 245.437 168.702 247.956 173.027 250.496C173.312 250.663 173.596 250.83 173.889 251.002C174.172 251.168 174.455 251.335 174.747 251.506C175.314 251.839 175.881 252.171 176.447 252.504C176.863 252.748 176.863 252.749 177.288 252.998C180.037 254.611 182.791 256.216 185.545 257.819C189.045 259.858 192.537 261.911 196.021 263.977C200.194 266.45 204.392 268.88 208.598 271.299C214.217 274.535 219.808 277.817 225.398 281.103C226.724 281.882 228.051 282.659 229.378 283.437C230.076 283.846 230.774 284.255 231.472 284.664C231.767 284.837 232.062 285.009 232.366 285.187C232.896 285.498 233.423 285.814 233.945 286.137C234.823 286.667 234.824 286.666 235.787 287.078C236.876 287.618 237.693 288.128 238.562 288.982C239.114 290.635 239.051 292.231 239.012 293.96C239.015 294.467 239.017 294.975 239.021 295.497C239.027 297.2 239.007 298.902 238.986 300.604C238.985 301.824 238.985 303.043 238.987 304.262C238.989 306.888 238.978 309.514 238.957 312.141C238.927 315.938 238.917 319.735 238.912 323.532C238.904 329.693 238.879 335.855 238.844 342.016C238.809 348 238.783 353.985 238.768 359.97C238.766 360.523 238.766 360.523 238.765 361.087C238.76 362.938 238.755 364.789 238.75 366.64C238.711 381.993 238.646 397.345 238.562 412.698C236.572 411.93 234.785 410.964 232.96 409.868C232.251 409.447 231.541 409.025 230.832 408.604C230.434 408.368 230.035 408.131 229.625 407.887C226.998 406.33 224.361 404.789 221.727 403.245C221.136 402.899 220.546 402.553 219.956 402.207C211.966 397.525 203.968 392.86 195.943 388.237C192.095 386.019 188.256 383.785 184.422 381.543C181.031 379.562 177.628 377.599 174.224 375.642C170.04 373.235 165.881 370.79 161.735 368.318C157.132 365.575 152.485 362.924 147.802 360.321C144.68 358.584 141.57 356.838 138.562 354.909C137.391 354.189 136.261 353.65 134.971 353.181C132.922 352.358 131.156 351.449 129.785 349.673C128.445 345.964 128.903 341.715 128.99 337.84C128.992 336.62 128.991 335.4 128.987 334.181C128.984 331.559 129.005 328.939 129.045 326.317C129.102 322.527 129.12 318.738 129.129 314.947C129.144 308.798 129.191 302.648 129.257 296.499C129.321 290.527 129.371 284.555 129.4 278.583C129.402 278.215 129.404 277.846 129.406 277.467C129.415 275.618 129.424 273.77 129.433 271.922C129.505 256.6 129.629 241.278 129.785 225.957ZM370.215 225.957C370.268 241.626 370.309 257.296 370.334 272.966C370.337 274.815 370.34 276.664 370.343 278.513C370.344 279.064 370.344 279.065 370.345 279.628C370.355 285.592 370.373 291.556 370.395 297.521C370.416 303.638 370.43 309.755 370.435 315.872C370.438 319.648 370.448 323.425 370.467 327.201C370.481 330.094 370.482 332.988 370.479 335.881C370.479 337.07 370.484 338.259 370.493 339.447C370.505 341.066 370.502 342.684 370.495 344.303C370.505 345.014 370.505 345.014 370.516 345.739C370.482 348.918 370.482 348.918 369.108 350.397C368.703 350.621 368.298 350.844 367.881 351.074C367.467 351.332 367.053 351.589 366.627 351.854C366.181 352.108 365.736 352.362 365.276 352.624C364.777 352.91 364.278 353.196 363.764 353.49C363.235 353.79 362.706 354.091 362.161 354.4C361.331 354.875 360.502 355.35 359.673 355.825C359.123 356.14 358.573 356.454 358.023 356.769C355.911 357.977 353.81 359.202 351.716 360.44C347.171 363.124 342.61 365.778 338.051 368.436C336.64 369.258 335.23 370.082 333.82 370.906C329.027 373.706 324.227 376.492 319.415 379.26C314.71 381.967 310.036 384.723 305.37 387.498C301.313 389.907 297.232 392.273 293.142 394.624C289.618 396.651 286.107 398.699 282.603 400.758C278.06 403.427 273.514 406.09 268.955 408.729C268.166 409.187 267.377 409.646 266.589 410.104C266.116 410.378 265.642 410.652 265.154 410.934C264.739 411.174 264.324 411.414 263.896 411.662C262.839 412.232 262.838 412.231 261.438 412.698C261.256 397.017 261.116 381.336 261.032 365.654C261.022 363.802 261.012 361.95 261.002 360.098C261 359.729 260.998 359.36 260.996 358.98C260.962 353.013 260.898 347.047 260.825 341.08C260.751 334.955 260.708 328.83 260.691 322.705C260.681 318.927 260.646 315.15 260.581 311.372C260.534 308.472 260.529 305.574 260.54 302.674C260.538 301.486 260.523 300.299 260.492 299.111C260.279 290.365 260.279 290.365 262.215 288.057C264.094 286.509 266.151 285.546 268.416 284.693C269.768 284.157 270.973 283.423 272.207 282.658C273.062 282.16 273.917 281.66 274.772 281.162C275.479 280.75 275.48 280.751 276.201 280.33C278.119 279.212 280.038 278.094 281.956 276.976C287.56 273.71 293.161 270.438 298.757 267.157C299.048 266.986 299.34 266.815 299.641 266.639C303.581 264.329 303.582 264.329 307.518 262.011C310.846 260.046 314.184 258.102 317.535 256.177C322.109 253.549 326.66 250.891 331.174 248.162C335.554 245.515 339.978 242.953 344.43 240.428C348.428 238.158 352.39 235.834 356.326 233.456C359.604 231.477 362.886 229.508 366.218 227.62C366.521 227.447 366.825 227.273 367.138 227.094C369.167 225.957 369.167 225.957 370.215 225.957ZM0 149.86C3.43575 151.734 6.83944 153.629 10.2129 155.608C10.9279 156.027 10.9284 156.026 11.6582 156.453C14.3241 158.013 16.9877 159.577 19.6514 161.141C20.7843 161.806 21.9177 162.471 23.0508 163.136C23.3337 163.302 23.6167 163.469 23.9082 163.64C28.5365 166.356 33.1799 169.045 37.8311 171.722C40.557 173.291 43.2774 174.87 45.9854 176.471C49.2498 178.4 52.5325 180.297 55.8184 182.189C61.1934 185.285 66.5547 188.404 71.9102 191.534C73.7714 192.622 75.634 193.708 77.4961 194.794C78.896 195.61 80.2955 196.427 81.6953 197.244C83.5744 198.34 85.4541 199.436 87.334 200.53C92.0658 203.286 96.7942 206.049 101.512 208.829C102.176 209.219 102.175 209.22 102.853 209.618C103.256 209.857 103.661 210.095 104.077 210.341C104.434 210.551 104.79 210.762 105.157 210.979C105.975 211.485 105.976 211.485 106.442 211.951C106.491 212.683 106.508 213.418 106.512 214.152C106.515 214.631 106.519 215.11 106.522 215.604C106.524 216.136 106.526 216.668 106.527 217.217C106.531 217.778 106.534 218.339 106.537 218.917C106.546 220.481 106.553 222.045 106.559 223.608C106.564 224.948 106.57 226.288 106.577 227.627C106.643 240.323 106.674 253.019 106.698 265.715C106.702 267.368 106.706 269.021 106.709 270.674C106.71 271.085 106.71 271.496 106.711 271.919C106.725 278.575 106.755 285.231 106.792 291.888C106.829 298.717 106.85 305.547 106.856 312.377C106.86 316.213 106.872 320.049 106.901 323.886C106.926 327.153 106.937 330.42 106.929 333.688C106.925 335.355 106.929 337.022 106.95 338.689C106.973 340.497 106.964 342.304 106.951 344.111C106.963 344.639 106.975 345.166 106.987 345.709C106.925 349.182 106.925 349.183 105.527 350.604C104.459 351.327 103.4 351.913 102.241 352.475C101.485 352.938 101.485 352.938 100.714 353.41C100.012 353.82 100.012 353.819 99.2959 354.237C99.0344 354.39 98.7724 354.544 98.5029 354.702C97.6587 355.196 96.8132 355.688 95.9678 356.18C95.3686 356.53 94.769 356.879 94.1699 357.229C89.7615 359.803 85.3398 362.354 80.915 364.899C77.7402 366.728 74.5795 368.579 71.4287 370.448C65.1991 374.144 58.9175 377.75 52.6367 381.357C46.9252 384.639 41.2294 387.943 35.5684 391.311C31.482 393.741 27.3797 396.138 23.2451 398.485C20.1024 400.271 16.979 402.09 13.8594 403.916C10.5898 405.827 7.31897 407.735 4.02637 409.605C3.72112 409.781 3.41606 409.956 3.10156 410.137C1.04339 411.298 1.04327 411.298 0 411.298V149.86ZM500 411.298C497.972 410.622 496.59 410.093 494.819 409.04C494.373 408.777 493.927 408.514 493.468 408.243C492.995 407.961 492.522 407.678 492.034 407.388C491.022 406.79 490.01 406.193 488.998 405.597C488.492 405.298 487.985 404.999 487.464 404.691C485.351 403.451 483.223 402.237 481.093 401.027C472.846 396.331 464.671 391.507 456.484 386.706C451.529 383.8 446.568 380.904 441.605 378.012C439.752 376.932 437.9 375.85 436.047 374.77C435.11 374.223 434.173 373.676 433.235 373.13C430.924 371.782 428.612 370.432 426.303 369.08C421.558 366.304 416.8 363.55 412.022 360.831C407.791 358.422 403.57 355.997 399.393 353.495C399.014 353.269 398.635 353.042 398.244 352.809C396.289 351.629 396.288 351.63 395.425 351.074C395.104 350.879 394.784 350.684 394.453 350.483C393.558 349.673 393.557 349.673 393.318 348.62C393.316 348.204 393.313 347.789 393.311 347.36C393.303 346.88 393.296 346.4 393.288 345.905C393.289 345.376 393.291 344.847 393.292 344.302C393.286 343.741 393.28 343.18 393.274 342.602C393.26 341.042 393.254 339.482 393.252 337.922C393.248 336.241 393.232 334.559 393.219 332.878C393.189 328.816 393.176 324.754 393.165 320.692C393.159 318.78 393.151 316.868 393.144 314.955C393.119 308.597 393.098 302.24 393.09 295.882C393.089 295.475 393.088 295.068 393.088 294.648C393.087 294.241 393.086 293.832 393.086 293.412C393.085 292.585 393.084 291.758 393.083 290.932C393.082 290.522 393.082 290.111 393.081 289.688C393.072 283.045 393.036 276.401 392.988 269.758C392.94 262.938 392.913 256.118 392.91 249.298C392.908 245.468 392.896 241.638 392.858 237.809C392.827 234.547 392.816 231.287 392.832 228.025C392.84 226.361 392.837 224.698 392.809 223.034C392.65 213.322 392.651 213.322 394.14 211.071C395.733 209.531 397.537 208.909 399.627 208.217C400.628 207.659 401.62 207.084 402.596 206.484C403.59 205.913 404.584 205.343 405.579 204.773C406.65 204.158 407.721 203.542 408.792 202.926C409.304 202.631 409.817 202.337 410.345 202.033C412.166 200.982 413.98 199.92 415.791 198.851C418.888 197.022 421.993 195.205 425.1 193.394C425.576 193.116 426.052 192.838 426.543 192.552C428.456 191.436 430.37 190.322 432.283 189.207C437.82 185.98 443.352 182.747 448.88 179.505C454.413 176.259 459.952 173.023 465.494 169.793C466.867 168.992 468.24 168.191 469.612 167.389C475.021 164.229 480.439 161.088 485.867 157.962C489.204 156.039 492.532 154.1 495.847 152.138C498.908 150.327 498.908 150.327 500 150.327V411.298ZM250.934 143.06C253.571 144.57 256.21 146.076 258.863 147.558C264.278 150.584 269.625 153.726 274.977 156.862C275.246 157.02 275.515 157.178 275.792 157.341C278.354 158.842 280.916 160.344 283.478 161.847C288.433 164.753 293.394 167.649 298.357 170.541C301.148 172.168 303.938 173.796 306.729 175.424C309.033 176.768 311.338 178.113 313.644 179.456C319.022 182.591 324.396 185.734 329.766 188.884C334.992 191.949 340.225 195.006 345.46 198.057C348.032 199.556 350.603 201.056 353.175 202.556C354.123 203.109 355.071 203.663 356.02 204.216C356.705 204.616 357.391 205.015 358.076 205.415C356.933 206.698 355.698 207.424 354.192 208.238C353.688 208.514 353.184 208.79 352.665 209.073C352.262 209.291 352.262 209.291 351.852 209.514C347.241 212.016 342.692 214.601 338.206 217.32C334.311 219.68 330.397 221.997 326.447 224.265C322.097 226.763 317.76 229.282 313.434 231.822C312.859 232.159 312.284 232.497 311.71 232.834C310.861 233.332 310.013 233.83 309.164 234.328C306.456 235.918 303.745 237.504 301.033 239.087C300.584 239.349 300.134 239.612 299.671 239.882C296.751 241.584 293.823 243.274 290.893 244.959C286.812 247.306 282.741 249.665 278.712 252.101C274.692 254.531 270.632 256.89 266.555 259.224C263.927 260.729 261.314 262.253 258.723 263.819C258.213 264.125 257.704 264.43 257.179 264.745C256.207 265.329 255.238 265.918 254.272 266.514C253.619 266.904 253.619 266.904 252.952 267.303C252.572 267.534 252.192 267.766 251.801 268.005C250.4 268.559 249.789 268.448 248.366 267.974C247.444 267.506 246.54 267 245.652 266.471C245.392 266.317 245.131 266.163 244.863 266.005C244.006 265.497 243.151 264.985 242.297 264.473C241.692 264.114 241.088 263.755 240.483 263.396C239.225 262.651 237.967 261.904 236.71 261.156C234.067 259.584 231.413 258.031 228.759 256.478C227.908 255.98 227.057 255.481 226.207 254.982C219.358 250.968 212.507 246.956 205.625 242.997C200.412 239.999 195.227 236.959 190.059 233.885C185.98 231.462 181.876 229.086 177.762 226.724C174.142 224.641 170.546 222.521 166.958 220.384C161.505 217.137 156.007 213.976 150.489 210.841C147.621 209.21 144.77 207.551 141.924 205.883C143.251 204.85 144.608 203.97 146.063 203.129C146.51 202.87 146.956 202.611 147.416 202.344C147.895 202.067 148.375 201.791 148.868 201.506C149.888 200.914 150.908 200.322 151.928 199.729C152.443 199.431 152.958 199.131 153.488 198.823C155.709 197.53 157.92 196.221 160.131 194.911C165.092 191.973 170.072 189.067 175.055 186.165C177.395 184.802 179.734 183.438 182.073 182.073C184.847 180.455 187.62 178.836 190.395 177.22C194.321 174.931 198.248 172.641 202.168 170.34C207.597 167.152 213.03 163.971 218.487 160.831C224.546 157.345 230.577 153.812 236.603 150.271C237.929 149.491 239.256 148.713 240.583 147.936C241.281 147.527 241.978 147.118 242.676 146.709C242.971 146.536 243.267 146.363 243.571 146.186C245.661 144.959 247.717 143.683 249.767 142.391C250.152 142.611 250.537 142.832 250.934 143.06ZM238.096 0C238.352 15.5301 238.549 31.06 238.667 46.5918C238.681 48.4276 238.696 50.2638 238.711 52.0996C238.714 52.465 238.717 52.8306 238.72 53.207C238.768 59.1157 238.857 65.0237 238.96 70.9316C239.065 76.9993 239.127 83.0663 239.149 89.1348C239.165 92.8767 239.213 96.6155 239.305 100.356C239.371 103.231 239.377 106.103 239.362 108.979C239.365 110.153 239.388 111.329 239.431 112.503C239.682 119.715 239.683 119.715 238.096 122.782C235.377 125.55 231.881 127.1 228.372 128.636C225.906 129.772 223.611 131.187 221.288 132.586C220.355 133.132 219.422 133.678 218.487 134.221C217.794 134.625 217.794 134.625 217.087 135.037C215.686 135.854 214.285 136.671 212.885 137.488C212.423 137.758 211.96 138.028 211.484 138.306C210.55 138.851 209.616 139.396 208.682 139.94C206.359 141.295 204.036 142.651 201.714 144.008C196.355 147.139 190.985 150.25 185.605 153.346C182.411 155.187 179.232 157.051 176.062 158.935C172.225 161.214 168.358 163.439 164.479 165.646C159.575 168.434 154.712 171.281 149.865 174.167C145.776 176.599 141.662 178.986 137.537 181.358C133.964 183.413 130.398 185.481 126.838 187.559C126.37 187.832 125.902 188.105 125.42 188.386C123.004 189.782 123.004 189.782 120.657 191.288C119.514 191.877 119.514 191.877 118.559 191.798C117.548 191.368 116.615 190.888 115.665 190.336C115.087 190.003 115.086 190.002 114.496 189.662C114.082 189.42 113.668 189.179 113.241 188.93C112.349 188.414 111.457 187.898 110.564 187.383C110.11 187.119 109.655 186.856 109.187 186.585C107.551 185.639 105.909 184.702 104.267 183.767C88.0408 174.523 88.0406 174.523 81.6143 170.626C78.2753 168.61 74.8872 166.678 71.5068 164.733C68.0504 162.744 64.601 160.743 61.1582 158.73C57.2752 156.461 53.3836 154.206 49.4863 151.961C45.1297 149.451 40.7827 146.926 36.4424 144.389C33.4555 142.644 30.4612 140.912 27.4629 139.187C24.9982 137.768 22.5356 136.345 20.0742 134.921C19.4741 134.574 19.4738 134.574 18.8613 134.221C17.8434 133.631 16.8284 133.037 15.8145 132.44C15.5271 132.275 15.2394 132.109 14.9434 131.938C14.3032 131.558 13.6847 131.142 13.0723 130.719V129.785C13.367 129.621 13.6621 129.458 13.9658 129.289C20.384 125.72 26.7624 122.094 33.0977 118.38C36.0811 116.632 39.0778 114.907 42.0752 113.183C45.8041 111.036 49.5215 108.871 53.2217 106.676C58.4375 103.582 63.6903 100.553 68.9473 97.5293C71.4872 96.0677 74.0254 94.6025 76.5635 93.1377C77.575 92.5541 78.5871 91.9703 79.5986 91.3867C80.0993 91.0979 80.6003 90.8084 81.1162 90.5107C97.8048 80.8827 97.8058 80.8823 99.3232 80.0068C100.333 79.4241 101.344 78.8416 102.354 78.2588C104.905 76.7866 107.457 75.3152 110.01 73.8467C115.169 70.8779 120.314 67.889 125.433 64.8516C129.229 62.6024 133.051 60.3973 136.876 58.1963C140.277 56.2384 143.671 54.2676 147.059 52.2871C151.452 49.7193 155.858 47.1725 160.268 44.6328C163.633 42.6933 166.99 40.7399 170.343 38.7783C174.375 36.4203 178.424 34.0898 182.481 31.7754C191.37 26.7042 200.237 21.6012 209.03 16.3662C213.37 13.7892 217.746 11.2802 222.135 8.78809C226.152 6.5032 230.136 4.16656 234.093 1.77734C234.485 1.5422 234.879 1.3077 235.283 1.06543C235.625 0.85871 235.968 0.65146 236.32 0.438477C237.162 -1.91949e-05 237.162 0 238.096 0ZM261.904 0.466797C263.556 0.84426 264.834 1.45306 266.318 2.28125C266.823 2.56186 267.328 2.84272 267.848 3.13184C268.395 3.43964 268.944 3.74761 269.491 4.05566C270.061 4.37429 270.631 4.69321 271.201 5.01172C275.266 7.28884 279.299 9.61941 283.317 11.9785C286.902 14.0824 290.506 16.1501 294.117 18.207C298.655 20.7927 303.178 23.4044 307.686 26.042C311.092 28.0342 314.507 30.0101 317.927 31.9795C321.824 34.2243 325.716 36.4797 329.599 38.749C333.463 41.0071 337.334 43.2536 341.212 45.4893C341.716 45.7802 342.221 46.0713 342.741 46.3711C345.28 47.8344 347.819 49.2963 350.36 50.7559C355.551 53.7403 360.723 56.7524 365.867 59.8154C370.166 62.3741 374.491 64.8746 378.854 67.3223C382.559 69.4038 386.23 71.5409 389.897 73.6885C392.897 75.4435 395.906 77.1796 398.926 78.8984C402.372 80.8604 405.804 82.8473 409.227 84.8506C413.326 87.2494 417.442 89.6183 421.568 91.9697C426.105 94.5553 430.628 97.166 435.135 99.8037C438.56 101.808 441.997 103.792 445.437 105.771C449.147 107.907 452.844 110.062 456.524 112.249C460.373 114.535 464.249 116.772 468.138 118.989C468.686 119.302 469.235 119.616 469.783 119.929C472.037 121.214 474.292 122.5 476.548 123.782C477.977 124.595 479.406 125.41 480.833 126.228C481.633 126.684 482.434 127.139 483.235 127.593C483.714 127.867 484.193 128.142 484.687 128.425C485.321 128.786 485.322 128.787 485.969 129.155C486.928 129.785 486.928 129.786 487.395 130.719C487.1 130.882 486.805 131.046 486.501 131.215C479.594 135.055 472.738 138.967 465.923 142.968C463.541 144.365 461.156 145.756 458.771 147.146C458.303 147.42 457.835 147.693 457.353 147.975C454.176 149.827 450.994 151.672 447.811 153.513C444.866 155.216 441.926 156.928 438.988 158.643C438.516 158.918 438.043 159.194 437.556 159.479C435.201 160.852 432.847 162.227 430.495 163.604C425.268 166.662 420.023 169.687 414.76 172.682C410.146 175.308 405.577 178.004 401.018 180.726C396.866 183.194 392.67 185.569 388.441 187.901C387.989 188.152 387.536 188.402 387.07 188.66C386.651 188.891 386.232 189.123 385.801 189.361C384.852 189.914 383.986 190.5 383.106 191.154C381.886 191.876 381.886 191.877 380.78 191.764C379.486 191.392 378.504 190.902 377.349 190.214C376.921 189.961 376.493 189.708 376.052 189.448C375.589 189.171 375.126 188.894 374.649 188.608C373.638 188.01 372.627 187.412 371.615 186.814C371.077 186.495 370.539 186.175 370.001 185.855C367.486 184.362 364.961 182.886 362.437 181.408C361.286 180.735 360.136 180.06 358.986 179.386C354.318 176.648 349.643 173.921 344.967 171.196C343.114 170.116 341.261 169.035 339.408 167.954C338.472 167.408 337.535 166.862 336.599 166.315C334.276 164.961 331.953 163.605 329.631 162.248C321.795 157.67 313.935 153.133 306.068 148.607C299.353 144.742 292.66 140.839 285.979 136.914C283.918 135.703 281.856 134.494 279.793 133.285C279.496 133.111 279.199 132.937 278.893 132.758C278.015 132.244 277.138 131.729 276.261 131.215C273.112 129.37 273.111 129.37 271.631 128.458C270.391 127.723 269.164 127.169 267.818 126.656C265.548 125.711 263.508 124.692 261.904 122.782C260.428 119.13 260.904 114.881 261.004 111.024C261.006 109.819 261.004 108.613 261 107.407C260.996 104.816 261.021 102.227 261.065 99.6367C261.13 95.8917 261.151 92.1468 261.161 88.4014C261.178 82.3244 261.23 76.2483 261.306 70.1719C261.379 64.2714 261.435 58.3706 261.469 52.4697C261.471 52.1057 261.473 51.7412 261.476 51.3662C261.486 49.5395 261.496 47.7124 261.506 45.8857C261.588 30.7457 261.727 15.6061 261.904 0.466797Z" fill="white"/>
</svg>
