<svg width="24" height="24" viewBox="0 0 24 24" fill="none" xmlns="http://www.w3.org/2000/svg">
<g clip-path="url(#clip0_668_13)">
<path d="M12 24C12 22.34 11.68 20.78 11.04 19.32C10.42 17.86 9.56999 16.59 8.48999 15.51C7.40999 14.43 6.14003 13.58 4.68 12.96C3.22 12.32 1.66 12 0 12C1.66 12 3.22 11.69 4.68 11.07C6.14003 10.43 7.40999 9.56999 8.48999 8.48999C9.56999 7.40999 10.42 6.13997 11.04 4.68C11.68 3.22 12 1.66 12 0C12 1.66 12.31 3.22 12.93 4.68C13.57 6.13997 14.43 7.40999 15.51 8.48999C16.59 9.56999 17.86 10.43 19.32 11.07C20.78 11.69 22.34 12 24 12C22.34 12 20.78 12.32 19.32 12.96C17.86 13.58 16.59 14.43 15.51 15.51C14.43 16.59 13.57 17.86 12.93 19.32C12.31 20.78 12 22.34 12 24Z" fill="#34D399"/>
</g>
<defs>
<clipPath id="clip0_668_13">
<rect width="24" height="24" fill="white"/>
</clipPath>
</defs>
</svg>
